<mxfile host="app.diagrams.net" agent="Mozilla/5.0 (Windows NT 10.0; Win64; x64) AppleWebKit/537.36 (KHTML, like Gecko) Chrome/124.0.0.0 Safari/537.36" version="24.7.10">
  <diagram name="start GUI" id="iksDxQ5HEGY_t7do6rFN">
    <mxGraphModel dx="1434" dy="772" grid="1" gridSize="10" guides="1" tooltips="1" connect="1" arrows="1" fold="1" page="1" pageScale="1" pageWidth="850" pageHeight="1100" math="0" shadow="0">
      <root>
        <mxCell id="0" />
        <mxCell id="1" style="" parent="0" />
        <mxCell id="JEiM4xDWkNpShPy7EBwu-5" value="&lt;font color=&quot;#845444&quot;&gt;The alleged gods&lt;/font&gt;" style="strokeWidth=1;shadow=0;dashed=0;align=center;html=1;shape=mxgraph.mockup.containers.window;align=left;verticalAlign=top;spacingLeft=8;strokeColor2=#008cff;strokeColor3=#c4c4c4;fontColor=#ffffff;mainText=;fontSize=17;labelBackgroundColor=none;whiteSpace=wrap;fillColor=#F8F4E4;strokeColor=#432D57;" parent="1" vertex="1">
          <mxGeometry x="400" y="70" width="560" height="490" as="geometry" />
        </mxCell>
        <mxCell id="OHxrN1VhGerwC14-gGYA-1" value="USER:" style="rounded=0;whiteSpace=wrap;html=1;fillColor=#F6ECDB;fontColor=#845444;fontSize=19;fontStyle=1;horizontal=1;verticalAlign=middle;align=center;" parent="1" vertex="1">
          <mxGeometry x="410" y="200" width="540" height="40" as="geometry" />
        </mxCell>
        <mxCell id="OHxrN1VhGerwC14-gGYA-5" value="Totals:&lt;span style=&quot;white-space: pre;&quot;&gt;&#x9;&lt;/span&gt;&lt;span style=&quot;white-space: pre;&quot;&gt;&#x9;&lt;/span&gt;&lt;span style=&quot;white-space: pre;&quot;&gt;&#x9;&lt;/span&gt;&lt;span style=&quot;white-space: pre;&quot;&gt;&#x9;&lt;/span&gt;##" style="rounded=0;whiteSpace=wrap;html=1;fillColor=#F6ECDB;fontColor=#845444;fontSize=19;fontStyle=1;horizontal=1;verticalAlign=middle;align=center;" parent="1" vertex="1">
          <mxGeometry x="410" y="420" width="540" height="40" as="geometry" />
        </mxCell>
        <mxCell id="OHxrN1VhGerwC14-gGYA-6" value="Worst score:&amp;nbsp;&lt;span style=&quot;white-space: pre;&quot;&gt;&#x9;&lt;/span&gt;&lt;span style=&quot;white-space: pre;&quot;&gt;&#x9;&lt;/span&gt;&lt;span style=&quot;white-space: pre;&quot;&gt;&#x9;&lt;/span&gt;##" style="rounded=0;whiteSpace=wrap;html=1;fillColor=#F6ECDB;fontColor=#845444;fontSize=19;fontStyle=1;horizontal=1;verticalAlign=middle;align=center;" parent="1" vertex="1">
          <mxGeometry x="410" y="310" width="540" height="40" as="geometry" />
        </mxCell>
        <mxCell id="OHxrN1VhGerwC14-gGYA-7" value="Average score: &lt;span style=&quot;white-space: pre;&quot;&gt;&#x9;&lt;/span&gt;&lt;span style=&quot;white-space: pre;&quot;&gt;&#x9;&lt;/span&gt;##" style="rounded=0;whiteSpace=wrap;html=1;fillColor=#F6ECDB;fontColor=#845444;fontSize=19;fontStyle=1;horizontal=1;verticalAlign=middle;align=center;" parent="1" vertex="1">
          <mxGeometry x="410" y="370" width="540" height="40" as="geometry" />
        </mxCell>
        <mxCell id="OHxrN1VhGerwC14-gGYA-8" value="Best score:&lt;span style=&quot;white-space: pre;&quot;&gt;&#x9;&lt;/span&gt;&lt;span style=&quot;white-space: pre;&quot;&gt;&#x9;&lt;/span&gt;&lt;span style=&quot;white-space: pre;&quot;&gt;&#x9;&lt;/span&gt;##" style="rounded=0;whiteSpace=wrap;html=1;fillColor=#F6ECDB;fontColor=#845444;fontSize=19;fontStyle=1;horizontal=1;verticalAlign=middle;align=center;" parent="1" vertex="1">
          <mxGeometry x="410" y="250" width="540" height="40" as="geometry" />
        </mxCell>
        <mxCell id="JEiM4xDWkNpShPy7EBwu-6" value="Untitled Layer" style="" parent="0" />
        <mxCell id="JEiM4xDWkNpShPy7EBwu-8" value="" style="endArrow=none;html=1;rounded=0;strokeColor=#FF3333;shape=link;strokeWidth=2;" parent="JEiM4xDWkNpShPy7EBwu-6" edge="1">
          <mxGeometry width="50" height="50" relative="1" as="geometry">
            <mxPoint x="380" y="180" as="sourcePoint" />
            <mxPoint x="980" y="180" as="targetPoint" />
          </mxGeometry>
        </mxCell>
        <mxCell id="JEiM4xDWkNpShPy7EBwu-9" value="" style="endArrow=none;html=1;rounded=0;strokeColor=#FF3333;shape=link;strokeWidth=2;" parent="JEiM4xDWkNpShPy7EBwu-6" edge="1">
          <mxGeometry width="50" height="50" relative="1" as="geometry">
            <mxPoint x="380" y="480" as="sourcePoint" />
            <mxPoint x="980" y="480" as="targetPoint" />
          </mxGeometry>
        </mxCell>
        <mxCell id="XhFEnANj9DKwVtLJGlU8-2" value="Untitled Layer" style="" parent="0" />
        <mxCell id="XhFEnANj9DKwVtLJGlU8-17" value="Untitled Layer" style="" parent="0" />
        <mxCell id="XhFEnANj9DKwVtLJGlU8-28" value="&lt;span style=&quot;font-size: 30px;&quot;&gt;&lt;b&gt;&lt;font color=&quot;#845444&quot;&gt;Play Summary&lt;/font&gt;&lt;/b&gt;&lt;/span&gt;" style="text;html=1;align=center;verticalAlign=middle;whiteSpace=wrap;rounded=0;fontColor=#FFFFFF;" parent="XhFEnANj9DKwVtLJGlU8-17" vertex="1">
          <mxGeometry x="410" y="110" width="540" height="60" as="geometry" />
        </mxCell>
        <mxCell id="XhFEnANj9DKwVtLJGlU8-36" value="&lt;b style=&quot;color: rgb(255, 255, 255); font-size: 30px;&quot;&gt;Dismiss&lt;/b&gt;" style="rounded=1;whiteSpace=wrap;html=1;fillColor=#276FBF;strokeColor=#000000;" parent="XhFEnANj9DKwVtLJGlU8-17" vertex="1">
          <mxGeometry x="595.62" y="490" width="168.75" height="60" as="geometry" />
        </mxCell>
        <mxCell id="l0HrfNPzoSizOLaQtWFR-5" value="Untitled Layer" parent="0" />
      </root>
    </mxGraphModel>
  </diagram>
</mxfile>
